#!OML:ASF F:\VICON\USERDATA\INSTALL\rory3\rory3.ASF
:FULLY-SPECIFIED
:DEGREES
101
root -8.9189 17.343 -4.56988 -73.3164 -84.2484 71.1711
lowerback 10.8949 2.6609 0.666856
upperback 0.0735794 3.60724 0.034712
thorax -5.99204 1.74406 -0.90877
lowerneck -18.2669 5.49412 -8.35639
upperneck 42.0833 8.35641 5.09206
head 18.1768 2.23547 5.38733
rclavicle -3.35698e-014 1.82882e-014
rhumerus -33.4792 -17.3294 -69.6396
rradius 30.6466
rwrist 6.5449
rhand -17.2089 8.67964
rfingers 7.12502
rthumb 9.03377 -21.1069
lclavicle -3.35698e-014 1.82882e-014
lhumerus -32.9583 15.6884 80.913
lradius 26.8885
lwrist -8.6472
lhand -20.4124 25.9915
lfingers 7.12502
lthumb 5.94172 55.8881
rfemur 1.11148 10.4097 -1.81079
rtibia 26.529
rfoot -12.7305 -6.79302
rtoes -17.2466
lfemur 0.819755 -4.22529 -12.0764
ltibia 17.4304
lfoot -7.83399 4.59965
ltoes -32.3234
102
root -8.91947 17.3488 -4.41002 -72.2073 -83.9134 69.9729
lowerback 11.0004 2.58985 0.637382
upperback 0.152747 3.50243 -0.0446621
thorax -5.9661 1.69197 -0.961586
lowerneck -18.0936 5.5641 -8.04498
upperneck 41.9514 8.52209 4.62302
head 18.0984 2.29451 5.12498
rclavicle -1.22998e-014 3.97569e-015
rhumerus -33.5489 -18.0459 -69.3751
rradius 30.7578
rwrist 6.57678
rhand -17.1583 8.68811
rfingers 7.12502
rthumb 9.08261 -21.0963
lclavicle -1.22998e-014 3.97569e-015
lhumerus -32.6387 14.9164 81.3517
lradius 26.7798
lwrist -8.38245
lhand -20.4924 26.0528
lfingers 7.12502
lthumb 5.86442 55.9517
rfemur 1.0946 10.2099 -2.54934
rtibia 26.8504
rfoot -11.702 -7.07687
rtoes -16.7526
lfemur 0.81282 -4.22013 -13.0821
ltibia 17.6847
lfoot -8.2182 5.10772
ltoes -32.1563
103
root -8.92125 17.3594 -4.25453 -71.2887 -83.5732 69.037
lowerback 10.9641 2.50727 0.569325
upperback 0.245481 3.3775 -0.112438
thorax -5.84972 1.63253 -0.969831
lowerneck -18.0999 5.65658 -7.48063
upperneck 41.9419 8.79177 3.82567
head 18.1826 2.36837 4.70934
rclavicle 7.35503e-015 1.66979e-014
rhumerus -33.6374 -18.8782 -69.0977
rradius 30.977
rwrist 6.70699
rhand -17.2703 8.64338
rfingers 7.12502
rthumb 8.97452 -21.1457
lclavicle 7.35503e-015 1.66979e-014
lhumerus -32.3799 14.393 81.7158
lradius 26.7104
lwrist -8.31986
lhand -20.3041 25.9866
lfingers 7.12502
lthumb 6.04628 55.8803
rfemur 0.941737 10.1143 -3.25822
rtibia 27.287
rfoot -10.8234 -7.45148
rtoes -13.2934
lfemur 0.762248 -4.37884 -14.0835
ltibia 17.813
lfoot -8.37283 5.58487
ltoes -32.8814
104
root -8.92478 17.3783 -4.10603 -69.9596 -83.0234 67.8833
lowerback 10.7629 2.45862 0.19625
upperback 0.257698 3.26228 -0.178293
thorax -5.74291 1.58683 -0.801716
lowerneck -18.0933 5.70207 -7.26462
upperneck 42.0078 8.93302 3.46716
head 18.2581 2.39739 4.53693
rclavicle -2.53947e-014 1.90833e-014
rhumerus -33.7896 -19.6547 -68.7231
rradius 31.1562
rwrist 6.72311
rhand -17.4522 8.5933
rfingers 7.12502
rthumb 8.79895 -21.2033
lclavicle -2.53947e-014 1.90833e-014
lhumerus -32.1745 13.7156 82.1744
lradius 26.6829
lwrist -8.18589
lhand -19.9057 25.8834
lfingers 7.12502
lthumb 6.43083 55.7657
rfemur 0.568531 9.94862 -4.07308
rtibia 27.8398
rfoot -9.7562 -8.25034
rtoes -9.85163
lfemur 0.542751 -4.60417 -15.2032
ltibia 17.7864
lfoot -8.42309 5.68865
ltoes -32.6005
105
root -8.92728 17.3996 -3.96866 -68.7607 -82.3412 66.9755
lowerback 10.4441 2.40558 -0.430248
upperback 0.239683 3.11187 -0.277989
thorax -5.61268 1.53017 -0.517686
lowerneck -18.0562 5.64684 -7.54621
upperneck 42.0538 8.83086 3.73857
head 18.2397 2.35064 4.69208
rclavicle 2.26615e-014 8.74653e-015
rhumerus -33.9574 -20.1284 -68.5354
rradius 31.4083
rwrist 6.41191
rhand -17.6422 8.54613
rfingers 7.12502
rthumb 8.61568 -21.2581
lclavicle 2.26615e-014 8.74653e-015
lhumerus -31.9713 12.9169 82.5864
lradius 26.7482
lwrist -7.89229
lhand -19.5814 25.702
lfingers 7.12502
lthumb 6.74396 55.5746
rfemur 0.0737363 9.72515 -4.94457
rtibia 28.4408
rfoot -8.48667 -9.1712
rtoes -6.87694
lfemur 0.261877 -4.9797 -16.3619
ltibia 17.6567
lfoot -8.49072 5.58448
ltoes -31.3557
106
root -8.93249 17.4215 -3.837 -68.1312 -82.177 66.3139
lowerback 10.4027 2.40694 -0.636827
upperback 0.312808 3.09125 -0.228097
thorax -5.52647 1.52599 -0.342896
lowerneck -17.9664 5.57681 -8.01463
upperneck 42.0677 8.66563 4.25216
head 18.1588 2.29102 4.97424
rclavicle 4.62174e-015 1.11319e-014
rhumerus -34.0711 -20.4322 -68.4184
rradius 31.6468
rwrist 5.86318
rhand -17.7019 8.40314
rfingers 7.12502
rthumb 8.55801 -21.4034
lclavicle 4.62174e-015 1.11319e-014
lhumerus -31.8178 12.2307 82.9725
lradius 26.8966
lwrist -7.75516
lhand -19.3482 25.6486
lfingers 7.12502
lthumb 6.96908 55.5139
rfemur -0.206377 9.77568 -5.15829
rtibia 29.0923
rfoot -7.18228 -10.1895
rtoes -3.46508
lfemur 0.431053 -5.00545 -16.915
ltibia 17.4311
lfoot -8.63796 5.1789
ltoes -30.5606
